<?xml version="1.0" encoding="utf-8"?>
<!-- Generator: Adobe Illustrator 17.0.0, SVG Export Plug-In . SVG Version: 6.00 Build 0)  -->
<!DOCTYPE svg PUBLIC "-//W3C//DTD SVG 1.1//EN" "http://www.w3.org/Graphics/SVG/1.1/DTD/svg11.dtd">
<svg version="1.1" id="图层_1" xmlns="http://www.w3.org/2000/svg" xmlns:xlink="http://www.w3.org/1999/xlink" x="0px" y="0px"
	 width="144px" height="144px" viewBox="0 0 144 144" enable-background="new 0 0 144 144" xml:space="preserve">
<g id="图层_2" display="none">
	<path display="inline" fill="#727171" d="M72,19.833c-28.995,0-52.5,23.505-52.5,52.5s23.505,52.5,52.5,52.5s52.5-23.505,52.5-52.5
		S100.995,19.833,72,19.833z M72,117.5c-24.945,0-45.167-20.222-45.167-45.167S47.055,27.167,72,27.167s45.167,20.222,45.167,45.167
		S96.945,117.5,72,117.5z"/>
</g>
<g id="图层_3" display="none">
	<rect x="21.75" y="22.084" display="inline" fill="#DCDDDD" width="100" height="100"/>
</g>
<g id="图层_4" display="none">
	<path display="inline" fill="#595757" d="M99.796,73.237L57.381,30.822c-1.945-1.945-5.1-1.945-7.045,0
		c-1.945,1.945-1.945,5.1,0,7.045l-0.02,0.02l35.35,35.35l-35.35,35.35l0.018,0.018c-1.824,1.953-1.797,5.009,0.108,6.913
		c1.904,1.904,4.96,1.932,6.913,0.108l0.027,0.027L99.796,73.237z"/>
</g>
<g id="图层_5" display="none">
	<path display="inline" fill="#595757" d="M66.633,101.865c-16.207-2.797-27.078-18.204-24.28-34.411
		c2.797-16.207,18.204-27.078,34.411-24.28c7.387,1.275,13.65,5.18,18.028,10.577l7.957-5.605
		c-5.813-7.435-14.298-12.82-24.331-14.552C56.965,29.892,36.573,44.281,32.87,65.732s10.686,41.844,32.138,45.546
		c14.484,2.5,28.474-3.256,37.18-13.857l-6.846-6.83C88.825,99.106,77.933,103.815,66.633,101.865z"/>
</g>
<g id="图层_6">
	<path fill="#595757" d="M103.763,94.853c-0.032-0.032-0.071-0.053-0.103-0.084L81.014,72.124l22.457-22.457
		c0.032-0.031,0.071-0.051,0.103-0.084c2.517-2.517,2.517-6.598,0-9.115c-2.517-2.517-6.598-2.517-9.115,0
		c-0.032,0.032-0.053,0.071-0.085,0.104L71.918,63.028L49.272,40.382c-0.031-0.032-0.051-0.071-0.084-0.103
		c-2.517-2.517-6.598-2.517-9.115,0c-2.517,2.517-2.517,6.598,0,9.115c0.032,0.032,0.071,0.053,0.104,0.085l22.646,22.646
		L39.987,94.959c-0.032,0.031-0.072,0.053-0.104,0.085c-2.517,2.517-2.517,6.598,0,9.115s6.598,2.517,9.115,0
		c0.032-0.032,0.053-0.071,0.084-0.103l22.835-22.835l22.647,22.643c0.031,0.032,0.053,0.072,0.085,0.104
		c2.517,2.517,6.598,2.517,9.115,0C106.28,101.451,106.28,97.371,103.763,94.853z"/>
</g>
<g id="图层_7" display="none">
	<path display="inline" fill="#595757" d="M106.875,42.083c0-2.761-2.239-5-5-5c-0.043,0-0.082,0.011-0.125,0.013v-0.013h-60
		c-2.761,0-5,2.239-5,5v59.38c-0.026,0.205-0.063,0.408-0.063,0.62c0,0.732,0.166,1.422,0.448,2.048
		c0.754,1.806,2.535,3.077,4.614,3.077c0.373,0,0.734-0.048,1.083-0.125h57.959c0.35,0.077,0.71,0.125,1.083,0.125
		c2.761,0,5-2.239,5-5c0-0.043-0.011-0.082-0.013-0.125h0.013L106.875,42.083L106.875,42.083z M46.75,97.083v-50h50.125v50H46.75z"
		/>
</g>
<g id="图层_8" display="none">
	<path display="inline" fill="#595757" d="M100.875,67.042c-0.043,0-0.082,0.011-0.125,0.013v-0.013h-60
		c-2.738,0-4.958,2.22-4.958,4.958s2.22,4.958,4.958,4.958h60v-0.013c0.042,0.001,0.082,0.013,0.125,0.013
		c2.738,0,4.958-2.22,4.958-4.958S103.613,67.042,100.875,67.042z"/>
</g>
</svg>
