<?xml version="1.0" encoding="iso-8859-1"?>
<!-- Generator: Adobe Illustrator 17.0.0, SVG Export Plug-In . SVG Version: 6.00 Build 0)  -->
<!DOCTYPE svg PUBLIC "-//W3C//DTD SVG 1.1//EN" "http://www.w3.org/Graphics/SVG/1.1/DTD/svg11.dtd">
<svg version="1.1" xmlns="http://www.w3.org/2000/svg" xmlns:xlink="http://www.w3.org/1999/xlink" x="0px" y="0px" width="144px"
	 height="144px" viewBox="0 0 144 144" style="enable-background:new 0 0 144 144;" xml:space="preserve">
<g id="&#x56FE;&#x5C42;_2" style="display:none;">
	<path style="display:inline;fill:#727171;" d="M72,19.833c-28.995,0-52.5,23.505-52.5,52.5s23.505,52.5,52.5,52.5
		s52.5-23.505,52.5-52.5S100.995,19.833,72,19.833z M72,117.5c-24.945,0-45.167-20.222-45.167-45.167S47.055,27.167,72,27.167
		s45.167,20.222,45.167,45.167S96.945,117.5,72,117.5z"/>
</g>
<g id="&#x56FE;&#x5C42;_3" style="display:none;">
	<rect x="21.75" y="22.084" style="display:inline;fill:#DCDDDD;" width="100" height="100"/>
</g>
<g id="&#x56FE;&#x5C42;_4" style="display:none;">
	<path style="display:inline;fill:#595757;" d="M99.796,73.237L57.381,30.822c-1.945-1.945-5.1-1.945-7.045,0
		c-1.945,1.945-1.945,5.1,0,7.045l-0.02,0.02l35.35,35.35l-35.35,35.35l0.018,0.018c-1.824,1.953-1.797,5.009,0.108,6.913
		c1.904,1.904,4.96,1.932,6.913,0.108l0.027,0.027L99.796,73.237z"/>
</g>
<g id="&#x56FE;&#x5C42;_5" style="display:none;">
	<path style="display:inline;fill:#595757;" d="M66.633,101.865c-16.207-2.797-27.078-18.204-24.28-34.411
		c2.797-16.207,18.204-27.078,34.411-24.28c7.387,1.275,13.65,5.18,18.028,10.577l7.957-5.605
		c-5.813-7.435-14.298-12.82-24.331-14.552C56.965,29.892,36.573,44.281,32.87,65.732s10.686,41.844,32.138,45.546
		c14.484,2.5,28.474-3.256,37.18-13.857l-6.846-6.83C88.825,99.106,77.933,103.815,66.633,101.865z"/>
</g>
<g id="&#x56FE;&#x5C42;_6" style="display:none;">
	<path style="display:inline;fill:#595757;" d="M96.653,84.815c-0.025-0.025-0.055-0.041-0.08-0.065L78.968,67.145l17.458-17.458
		c0.025-0.024,0.055-0.04,0.08-0.065c1.957-1.957,1.957-5.129,0-7.086c-1.957-1.957-5.129-1.957-7.086,0
		c-0.025,0.025-0.041,0.055-0.066,0.081L71.897,60.074L54.292,42.469c-0.024-0.025-0.04-0.055-0.065-0.08
		c-1.957-1.957-5.129-1.957-7.086,0c-1.957,1.957-1.957,5.129,0,7.086c0.025,0.025,0.055,0.041,0.081,0.066l17.605,17.605
		L47.074,84.897c-0.025,0.024-0.056,0.041-0.081,0.066c-1.957,1.957-1.957,5.129,0,7.086c1.957,1.957,5.129,1.957,7.086,0
		c0.025-0.025,0.041-0.055,0.065-0.08l17.752-17.752L89.502,91.82c0.024,0.025,0.041,0.056,0.066,0.081
		c1.957,1.957,5.129,1.957,7.086,0C98.61,89.944,98.61,86.772,96.653,84.815z"/>
</g>
<g id="&#x56FE;&#x5C42;_7" style="display:none;">
	<path style="display:inline;fill:#595757;" d="M106.875,42.083c0-2.761-2.239-5-5-5c-0.043,0-0.082,0.011-0.125,0.013v-0.013h-60
		c-2.761,0-5,2.239-5,5v59.38c-0.026,0.205-0.063,0.408-0.063,0.62c0,0.732,0.166,1.422,0.448,2.048
		c0.754,1.806,2.535,3.077,4.614,3.077c0.373,0,0.734-0.048,1.083-0.125h57.959c0.35,0.077,0.71,0.125,1.083,0.125
		c2.761,0,5-2.239,5-5c0-0.043-0.011-0.082-0.013-0.125h0.013V42.083z M46.75,97.083v-50h50.125v50H46.75z"/>
</g>
<g id="&#x56FE;&#x5C42;_8">
	<path style="fill:#595757;" d="M100.875,67.042c-0.043,0-0.082,0.011-0.125,0.013v-0.013h-60c-2.738,0-4.958,2.22-4.958,4.958
		s2.22,4.958,4.958,4.958h60v-0.013c0.042,0.001,0.082,0.013,0.125,0.013c2.738,0,4.958-2.22,4.958-4.958
		S103.613,67.042,100.875,67.042z"/>
</g>
</svg>
